<svg width="363" height="376" viewBox="0 0 363 376" fill="none" xmlns="http://www.w3.org/2000/svg">
<path fill-rule="evenodd" clip-rule="evenodd" d="M171.552 0.718173C92.2445 8.39517 41.3105 63.1482 37.2305 145.109C35.9205 171.417 33.3975 177.427 11.0935 207.363C-5.65248 229.839 -3.62048 242.373 18.4215 252.556C28.4475 257.188 29.1365 258.329 26.2815 265.574C22.7045 274.647 23.8425 282.146 29.6125 287.536C32.0095 289.775 32.0755 290.089 30.7075 292.736C27.3735 299.182 28.9515 305.517 35.6175 312.452C39.7505 316.752 39.7505 316.752 39.3255 323.952C37.5735 353.652 40.9085 362.825 56.3135 370.684C82.7865 384.19 149.457 365.413 178.636 336.233C202.398 312.472 211.908 284.616 212.337 237.517C212.497 219.882 212.496 219.882 221.623 218.713C256.317 214.269 268.331 199.141 270.168 157.582C271.145 135.46 272.567 131.434 279.888 130.06C287.246 128.68 284.604 122.236 277.001 123.021C255.271 125.263 250.114 133.568 247.248 170.943C245.268 196.779 238.076 206.156 217.925 209.178C213.178 209.89 213.178 209.89 213.464 173.293C213.798 130.594 213.493 131.696 225.206 130.849C231.25 130.412 231.251 130.412 231.251 127.016C231.251 123.621 231.251 123.621 203.001 123.886C174.751 124.152 174.751 124.152 174.751 127.152C174.751 130.051 174.936 130.172 180.251 130.734C192.953 132.079 192.68 131.15 193.058 174.402C193.329 205.3 193.18 209.652 191.858 209.652C170.771 209.652 160.286 196.739 158.16 168.152C155.57 133.306 149.152 123.676 128.501 123.658C122.251 123.652 122.251 123.652 122.251 126.652C122.251 129.01 122.689 129.652 124.3 129.652C132.378 129.652 134.273 134.093 135.389 155.652C137.628 198.903 149.59 214.315 184.391 218.778C193.25 219.914 193.251 219.914 193.251 238.559C193.251 308.637 164.715 343.336 97.7505 354.681C60.2625 361.033 53.9845 356.211 57.8615 324.047C58.7395 316.767 56.2205 308.895 51.1345 303.018C47.0485 298.297 47.0485 298.297 51.6495 293.888C54.1805 291.463 56.2505 289.168 56.2505 288.788C56.2505 287.019 52.7475 283.441 48.6815 281.059C42.3005 277.319 41.8825 276.055 44.3645 268.017C47.0895 259.195 46.5675 253.001 42.6215 247.332C39.7885 243.262 37.2615 241.671 23.7505 235.453C16.4835 232.109 16.6005 230.145 24.7025 219.404C49.0595 187.111 53.8275 175.824 55.2405 147.109C59.1875 66.8952 108.088 19.1512 186.251 19.1972C251.527 19.2352 315.038 61.3692 336.743 119.037C338.081 122.593 340.539 127.715 342.203 130.42C351.28 145.171 357.71 163.249 358.926 177.435C360.275 193.175 362.234 182.37 362.241 159.152C362.267 71.4072 266.165 -8.43983 171.552 0.718173ZM176.751 61.2772C54.5795 79.7002 48.5065 239.862 168.419 281.02C179.588 284.854 179.714 284.817 181.628 277.196C184.139 267.202 184.304 267.523 174.998 264.262C104.62 239.605 76.9535 160.774 120.368 108.606C174.976 42.9882 320.775 92.8202 332.314 181.045C338.764 230.361 291.877 270.489 227.638 270.634C219.525 270.652 219.524 270.652 217.886 278.902C216.985 283.44 216.25 287.557 216.25 288.053C216.251 288.574 222.666 288.694 231.501 288.337C356.226 283.292 393.978 164.907 293.751 93.1272C261.586 70.0912 210.509 56.1862 176.751 61.2772Z" fill="white"/>
</svg>
